<?xml version="1.0" encoding="UTF-8" standalone="no" ?>
<!DOCTYPE svg PUBLIC "-//W3C//DTD SVG 1.1//EN" "http://www.w3.org/Graphics/SVG/1.1/DTD/svg11.dtd">
<svg xmlns="http://www.w3.org/2000/svg" xmlns:xlink="http://www.w3.org/1999/xlink" version="1.1" width="137.99" height="123.7783" xml:space="preserve">
<desc>Created with Fabric.js 1.6.0-rc.1</desc>
<defs></defs>
<g style="stroke: none; stroke-width: 1; stroke-dasharray: none; stroke-linecap: butt; stroke-linejoin: miter; stroke-miterlimit: 10; fill: none; fill-rule: nonzero; opacity: 1;" transform="translate(10 10) scale(0.23 0.23)" >
  <path d="M 485.517 61.793 H 26.483 C 11.857 61.793 0 73.65 0 88.276 v 335.448 c 0 14.626 11.857 26.483 26.483 26.483 h 459.034 c 14.626 0 26.483 -11.857 26.483 -26.483 V 88.276 C 512 73.65 500.143 61.793 485.517 61.793 z M 441.379 79.448 h 8.828 c 4.875 0 8.828 3.953 8.828 8.828 c 0 4.875 -3.953 8.828 -8.828 8.828 h -8.828 c -4.875 0 -8.828 -3.953 -8.828 -8.828 C 432.552 83.401 436.504 79.448 441.379 79.448 z M 194.207 79.448 h 211.862 c 4.875 0 8.828 3.953 8.828 8.828 c 0 4.875 -3.953 8.828 -8.828 8.828 H 194.207 c -4.875 0 -8.828 -3.953 -8.828 -8.828 C 185.379 83.401 189.332 79.448 194.207 79.448 z M 150.069 79.448 h 8.828 c 4.875 0 8.828 3.953 8.828 8.828 c 0 4.875 -3.953 8.828 -8.828 8.828 h -8.828 c -4.875 0 -8.828 -3.953 -8.828 -8.828 C 141.241 83.401 145.194 79.448 150.069 79.448 z M 114.759 79.448 h 8.828 c 4.875 0 8.828 3.953 8.828 8.828 c 0 4.875 -3.953 8.828 -8.828 8.828 h -8.828 c -4.875 0 -8.828 -3.953 -8.828 -8.828 C 105.931 83.401 109.884 79.448 114.759 79.448 z M 79.448 79.448 c 4.875 0 8.828 3.953 8.828 8.828 c 0 4.875 -3.953 8.828 -8.828 8.828 c -4.875 0 -8.828 -3.953 -8.828 -8.828 C 70.621 83.401 74.573 79.448 79.448 79.448 z M 52.966 79.448 c 4.875 0 8.828 3.953 8.828 8.828 c 0 4.875 -3.953 8.828 -8.828 8.828 s -8.828 -3.953 -8.828 -8.828 C 44.138 83.401 48.09 79.448 52.966 79.448 z M 26.483 79.448 c 4.875 0 8.828 3.953 8.828 8.828 c 0 4.875 -3.953 8.828 -8.828 8.828 s -8.828 -3.953 -8.828 -8.828 C 17.655 83.401 21.608 79.448 26.483 79.448 z M 494.345 167.724 v 256 c 0 4.875 -3.953 8.828 -8.828 8.828 H 26.483 c -4.875 0 -8.828 -3.953 -8.828 -8.828 v -256 v -44.138 c 0 -4.875 3.953 -8.828 8.828 -8.828 h 459.034 c 4.875 0 8.828 3.953 8.828 8.828 V 167.724 z M 485.517 97.103 h -8.828 c -4.875 0 -8.828 -3.953 -8.828 -8.828 c 0 -4.875 3.953 -8.828 8.828 -8.828 h 8.828 c 4.875 0 8.828 3.953 8.828 8.828 C 494.345 93.151 490.392 97.103 485.517 97.103 z" style="stroke: none; stroke-width: 1; stroke-dasharray: none; stroke-linecap: butt; stroke-linejoin: miter; stroke-miterlimit: 10; fill: #D2DCF0; fill-rule: nonzero; opacity: 1;" transform=" matrix(1 0 0 1 0 0) " stroke-linecap="round" />
  <path d="M 17.655 423.724 c 0 4.875 3.953 8.828 8.828 8.828 h 459.034 c 4.875 0 8.828 -3.953 8.828 -8.828 v -256 H 17.655 V 423.724 z M 397.241 211.862 v -8.828 c 0 -4.875 3.953 -8.828 8.828 -8.828 h 52.966 c 4.875 0 8.828 3.953 8.828 8.828 v 8.828 v 70.621 c 0 4.875 -3.953 8.828 -8.828 8.828 h -52.966 c -4.875 0 -8.828 -3.953 -8.828 -8.828 V 211.862 z M 300.138 211.862 v -8.828 c 0 -4.875 3.953 -8.828 8.828 -8.828 h 52.966 c 4.875 0 8.828 3.953 8.828 8.828 v 8.828 v 70.621 c 0 4.875 -3.953 8.828 -8.828 8.828 h -52.966 c -4.875 0 -8.828 -3.953 -8.828 -8.828 V 211.862 z M 300.138 326.621 c 0 -4.875 3.953 -8.828 8.828 -8.828 h 8.828 h 141.241 c 4.875 0 8.828 3.953 8.828 8.828 v 70.621 c 0 4.875 -3.953 8.828 -8.828 8.828 H 317.793 h -8.828 c -4.875 0 -8.828 -3.953 -8.828 -8.828 V 326.621 z M 203.034 211.862 v -8.828 c 0 -4.875 3.953 -8.828 8.828 -8.828 h 52.966 c 4.875 0 8.828 3.953 8.828 8.828 v 8.828 v 70.621 c 0 4.875 -3.953 8.828 -8.828 8.828 h -52.966 c -4.875 0 -8.828 -3.953 -8.828 -8.828 V 211.862 z M 44.138 211.862 v -8.828 c 0 -4.875 3.953 -8.828 8.828 -8.828 h 114.759 c 4.875 0 8.828 3.953 8.828 8.828 v 8.828 v 70.621 c 0 4.875 -3.953 8.828 -8.828 8.828 H 52.966 c -4.875 0 -8.828 -3.953 -8.828 -8.828 V 211.862 z M 44.138 326.621 c 0 -4.875 3.953 -8.828 8.828 -8.828 h 8.828 h 203.034 c 4.875 0 8.828 3.953 8.828 8.828 v 70.621 c 0 4.875 -3.953 8.828 -8.828 8.828 H 61.793 h -8.828 c -4.875 0 -8.828 -3.953 -8.828 -8.828 V 326.621 z" style="stroke: none; stroke-width: 1; stroke-dasharray: none; stroke-linecap: butt; stroke-linejoin: miter; stroke-miterlimit: 10; fill: #FFFFFF; fill-rule: nonzero; opacity: 1;" transform=" matrix(1 0 0 1 0 0) " stroke-linecap="round" />
  <circle cx="26.488" cy="88.278" r="8.828" style="stroke: none; stroke-width: 1; stroke-dasharray: none; stroke-linecap: butt; stroke-linejoin: miter; stroke-miterlimit: 10; fill: #FF6469; fill-rule: nonzero; opacity: 1;" transform="  matrix(1 0 0 1 0 0) "/>
  <circle cx="52.968" cy="88.278" r="8.828" style="stroke: none; stroke-width: 1; stroke-dasharray: none; stroke-linecap: butt; stroke-linejoin: miter; stroke-miterlimit: 10; fill: #FFE169; fill-rule: nonzero; opacity: 1;" transform="  matrix(1 0 0 1 0 0) "/>
  <circle cx="79.44800000000001" cy="88.278" r="8.828" style="stroke: none; stroke-width: 1; stroke-dasharray: none; stroke-linecap: butt; stroke-linejoin: miter; stroke-miterlimit: 10; fill: #87E1AA; fill-rule: nonzero; opacity: 1;" transform="  matrix(1 0 0 1 0 0) "/>
  <path d="M 114.759 97.103 h 8.828 c 4.875 0 8.828 -3.953 8.828 -8.828 c 0 -4.875 -3.953 -8.828 -8.828 -8.828 h -8.828 c -4.875 0 -8.828 3.953 -8.828 8.828 C 105.931 93.151 109.884 97.103 114.759 97.103 z" style="stroke: none; stroke-width: 1; stroke-dasharray: none; stroke-linecap: butt; stroke-linejoin: miter; stroke-miterlimit: 10; fill: #E4EAF6; fill-rule: nonzero; opacity: 1;" transform=" matrix(1 0 0 1 0 0) " stroke-linecap="round" />
  <path d="M 150.069 97.103 h 8.828 c 4.875 0 8.828 -3.953 8.828 -8.828 c 0 -4.875 -3.953 -8.828 -8.828 -8.828 h -8.828 c -4.875 0 -8.828 3.953 -8.828 8.828 C 141.241 93.151 145.194 97.103 150.069 97.103 z" style="stroke: none; stroke-width: 1; stroke-dasharray: none; stroke-linecap: butt; stroke-linejoin: miter; stroke-miterlimit: 10; fill: #E4EAF6; fill-rule: nonzero; opacity: 1;" transform=" matrix(1 0 0 1 0 0) " stroke-linecap="round" />
  <path d="M 441.379 97.103 h 8.828 c 4.875 0 8.828 -3.953 8.828 -8.828 c 0 -4.875 -3.953 -8.828 -8.828 -8.828 h -8.828 c -4.875 0 -8.828 3.953 -8.828 8.828 C 432.552 93.151 436.504 97.103 441.379 97.103 z" style="stroke: none; stroke-width: 1; stroke-dasharray: none; stroke-linecap: butt; stroke-linejoin: miter; stroke-miterlimit: 10; fill: #E4EAF6; fill-rule: nonzero; opacity: 1;" transform=" matrix(1 0 0 1 0 0) " stroke-linecap="round" />
  <path d="M 485.517 79.448 h -8.828 c -4.875 0 -8.828 3.953 -8.828 8.828 c 0 4.875 3.953 8.828 8.828 8.828 h 8.828 c 4.875 0 8.828 -3.953 8.828 -8.828 C 494.345 83.401 490.392 79.448 485.517 79.448 z" style="stroke: none; stroke-width: 1; stroke-dasharray: none; stroke-linecap: butt; stroke-linejoin: miter; stroke-miterlimit: 10; fill: #E4EAF6; fill-rule: nonzero; opacity: 1;" transform=" matrix(1 0 0 1 0 0) " stroke-linecap="round" />
  <path d="M 194.207 97.103 h 211.862 c 4.875 0 8.828 -3.953 8.828 -8.828 c 0 -4.875 -3.953 -8.828 -8.828 -8.828 H 194.207 c -4.875 0 -8.828 3.953 -8.828 8.828 C 185.379 93.151 189.332 97.103 194.207 97.103 z" style="stroke: none; stroke-width: 1; stroke-dasharray: none; stroke-linecap: butt; stroke-linejoin: miter; stroke-miterlimit: 10; fill: #E4EAF6; fill-rule: nonzero; opacity: 1;" transform=" matrix(1 0 0 1 0 0) " stroke-linecap="round" />
  <path d="M 485.517 114.759 H 26.483 c -4.875 0 -8.828 3.953 -8.828 8.828 v 44.138 h 476.69 v -44.138 C 494.345 118.711 490.392 114.759 485.517 114.759 z M 114.759 150.069 H 44.138 c -4.875 0 -8.828 -3.953 -8.828 -8.828 s 3.953 -8.828 8.828 -8.828 h 70.621 c 4.875 0 8.828 3.953 8.828 8.828 S 119.634 150.069 114.759 150.069 z M 185.379 150.069 h -35.31 c -4.875 0 -8.828 -3.953 -8.828 -8.828 s 3.953 -8.828 8.828 -8.828 h 35.31 c 4.875 0 8.828 3.953 8.828 8.828 S 190.254 150.069 185.379 150.069 z M 256 150.069 h -35.31 c -4.875 0 -8.828 -3.953 -8.828 -8.828 s 3.953 -8.828 8.828 -8.828 H 256 c 4.875 0 8.828 3.953 8.828 8.828 S 260.875 150.069 256 150.069 z M 326.621 150.069 h -35.31 c -4.875 0 -8.828 -3.953 -8.828 -8.828 s 3.953 -8.828 8.828 -8.828 h 35.31 c 4.875 0 8.828 3.953 8.828 8.828 S 331.496 150.069 326.621 150.069 z M 397.241 150.069 h -35.31 c -4.875 0 -8.828 -3.953 -8.828 -8.828 s 3.953 -8.828 8.828 -8.828 h 35.31 c 4.875 0 8.828 3.953 8.828 8.828 S 402.116 150.069 397.241 150.069 z M 467.862 150.069 h -35.31 c -4.875 0 -8.828 -3.953 -8.828 -8.828 s 3.953 -8.828 8.828 -8.828 h 35.31 c 4.875 0 8.828 3.953 8.828 8.828 S 472.737 150.069 467.862 150.069 z" style="stroke: none; stroke-width: 1; stroke-dasharray: none; stroke-linecap: butt; stroke-linejoin: miter; stroke-miterlimit: 10; fill: #FF6469; fill-rule: nonzero; opacity: 1;" transform=" matrix(1 0 0 1 0 0) " stroke-linecap="round" />
  <path d="M 114.759 132.414 H 44.138 c -4.875 0 -8.828 3.953 -8.828 8.828 s 3.953 8.828 8.828 8.828 h 70.621 c 4.875 0 8.828 -3.953 8.828 -8.828 S 119.634 132.414 114.759 132.414 z" style="stroke: none; stroke-width: 1; stroke-dasharray: none; stroke-linecap: butt; stroke-linejoin: miter; stroke-miterlimit: 10; fill: #FFDC69; fill-rule: nonzero; opacity: 1;" transform=" matrix(1 0 0 1 0 0) " stroke-linecap="round" />
  <path d="M 185.379 132.414 h -35.31 c -4.875 0 -8.828 3.953 -8.828 8.828 s 3.953 8.828 8.828 8.828 h 35.31 c 4.875 0 8.828 -3.953 8.828 -8.828 S 190.254 132.414 185.379 132.414 z" style="stroke: none; stroke-width: 1; stroke-dasharray: none; stroke-linecap: butt; stroke-linejoin: miter; stroke-miterlimit: 10; fill: #D2555F; fill-rule: nonzero; opacity: 1;" transform=" matrix(1 0 0 1 0 0) " stroke-linecap="round" />
  <path d="M 256 132.414 h -35.31 c -4.875 0 -8.828 3.953 -8.828 8.828 s 3.953 8.828 8.828 8.828 H 256 c 4.875 0 8.828 -3.953 8.828 -8.828 S 260.875 132.414 256 132.414 z" style="stroke: none; stroke-width: 1; stroke-dasharray: none; stroke-linecap: butt; stroke-linejoin: miter; stroke-miterlimit: 10; fill: #D2555F; fill-rule: nonzero; opacity: 1;" transform=" matrix(1 0 0 1 0 0) " stroke-linecap="round" />
  <path d="M 326.621 132.414 h -35.31 c -4.875 0 -8.828 3.953 -8.828 8.828 s 3.953 8.828 8.828 8.828 h 35.31 c 4.875 0 8.828 -3.953 8.828 -8.828 S 331.496 132.414 326.621 132.414 z" style="stroke: none; stroke-width: 1; stroke-dasharray: none; stroke-linecap: butt; stroke-linejoin: miter; stroke-miterlimit: 10; fill: #D2555F; fill-rule: nonzero; opacity: 1;" transform=" matrix(1 0 0 1 0 0) " stroke-linecap="round" />
  <path d="M 397.241 132.414 h -35.31 c -4.875 0 -8.828 3.953 -8.828 8.828 s 3.953 8.828 8.828 8.828 h 35.31 c 4.875 0 8.828 -3.953 8.828 -8.828 S 402.116 132.414 397.241 132.414 z" style="stroke: none; stroke-width: 1; stroke-dasharray: none; stroke-linecap: butt; stroke-linejoin: miter; stroke-miterlimit: 10; fill: #D2555F; fill-rule: nonzero; opacity: 1;" transform=" matrix(1 0 0 1 0 0) " stroke-linecap="round" />
  <path d="M 467.862 132.414 h -35.31 c -4.875 0 -8.828 3.953 -8.828 8.828 s 3.953 8.828 8.828 8.828 h 35.31 c 4.875 0 8.828 -3.953 8.828 -8.828 S 472.737 132.414 467.862 132.414 z" style="stroke: none; stroke-width: 1; stroke-dasharray: none; stroke-linecap: butt; stroke-linejoin: miter; stroke-miterlimit: 10; fill: #D2555F; fill-rule: nonzero; opacity: 1;" transform=" matrix(1 0 0 1 0 0) " stroke-linecap="round" />
  <path d="M 52.966 291.31 h 114.759 c 4.875 0 8.828 -3.953 8.828 -8.828 v -70.621 c 0 4.875 -3.953 8.828 -8.828 8.828 H 52.966 c -4.875 0 -8.828 -3.953 -8.828 -8.828 v 70.621 C 44.138 287.358 48.09 291.31 52.966 291.31 z" style="stroke: none; stroke-width: 1; stroke-dasharray: none; stroke-linecap: butt; stroke-linejoin: miter; stroke-miterlimit: 10; fill: #DEE3ED; fill-rule: nonzero; opacity: 1;" transform=" matrix(1 0 0 1 0 0) " stroke-linecap="round" />
  <path d="M 211.862 291.31 h 52.966 c 4.875 0 8.828 -3.953 8.828 -8.828 v -70.621 c 0 4.875 -3.953 8.828 -8.828 8.828 h -52.966 c -4.875 0 -8.828 -3.953 -8.828 -8.828 v 70.621 C 203.034 287.358 206.987 291.31 211.862 291.31 z" style="stroke: none; stroke-width: 1; stroke-dasharray: none; stroke-linecap: butt; stroke-linejoin: miter; stroke-miterlimit: 10; fill: #DEE3ED; fill-rule: nonzero; opacity: 1;" transform=" matrix(1 0 0 1 0 0) " stroke-linecap="round" />
  <path d="M 308.966 291.31 h 52.966 c 4.875 0 8.828 -3.953 8.828 -8.828 v -70.621 c 0 4.875 -3.953 8.828 -8.828 8.828 h -52.966 c -4.875 0 -8.828 -3.953 -8.828 -8.828 v 70.621 C 300.138 287.358 304.09 291.31 308.966 291.31 z" style="stroke: none; stroke-width: 1; stroke-dasharray: none; stroke-linecap: butt; stroke-linejoin: miter; stroke-miterlimit: 10; fill: #DEE3ED; fill-rule: nonzero; opacity: 1;" transform=" matrix(1 0 0 1 0 0) " stroke-linecap="round" />
  <path d="M 406.069 291.31 h 52.966 c 4.875 0 8.828 -3.953 8.828 -8.828 v -70.621 c 0 4.875 -3.953 8.828 -8.828 8.828 h -52.966 c -4.875 0 -8.828 -3.953 -8.828 -8.828 v 70.621 C 397.241 287.358 401.194 291.31 406.069 291.31 z" style="stroke: none; stroke-width: 1; stroke-dasharray: none; stroke-linecap: butt; stroke-linejoin: miter; stroke-miterlimit: 10; fill: #DEE3ED; fill-rule: nonzero; opacity: 1;" transform=" matrix(1 0 0 1 0 0) " stroke-linecap="round" />
  <path d="M 52.966 220.69 h 114.759 c 4.875 0 8.828 -3.953 8.828 -8.828 v -8.828 c 0 -4.875 -3.953 -8.828 -8.828 -8.828 H 52.966 c -4.875 0 -8.828 3.953 -8.828 8.828 v 8.828 C 44.138 216.737 48.09 220.69 52.966 220.69 z" style="stroke: none; stroke-width: 1; stroke-dasharray: none; stroke-linecap: butt; stroke-linejoin: miter; stroke-miterlimit: 10; fill: #FFDC69; fill-rule: nonzero; opacity: 1;" transform=" matrix(1 0 0 1 0 0) " stroke-linecap="round" />
  <path d="M 211.862 220.69 h 52.966 c 4.875 0 8.828 -3.953 8.828 -8.828 v -8.828 c 0 -4.875 -3.953 -8.828 -8.828 -8.828 h -52.966 c -4.875 0 -8.828 3.953 -8.828 8.828 v 8.828 C 203.034 216.737 206.987 220.69 211.862 220.69 z" style="stroke: none; stroke-width: 1; stroke-dasharray: none; stroke-linecap: butt; stroke-linejoin: miter; stroke-miterlimit: 10; fill: #B4E173; fill-rule: nonzero; opacity: 1;" transform=" matrix(1 0 0 1 0 0) " stroke-linecap="round" />
  <path d="M 308.966 220.69 h 52.966 c 4.875 0 8.828 -3.953 8.828 -8.828 v -8.828 c 0 -4.875 -3.953 -8.828 -8.828 -8.828 h -52.966 c -4.875 0 -8.828 3.953 -8.828 8.828 v 8.828 C 300.138 216.737 304.09 220.69 308.966 220.69 z" style="stroke: none; stroke-width: 1; stroke-dasharray: none; stroke-linecap: butt; stroke-linejoin: miter; stroke-miterlimit: 10; fill: #FF969B; fill-rule: nonzero; opacity: 1;" transform=" matrix(1 0 0 1 0 0) " stroke-linecap="round" />
  <path d="M 406.069 220.69 h 52.966 c 4.875 0 8.828 -3.953 8.828 -8.828 v -8.828 c 0 -4.875 -3.953 -8.828 -8.828 -8.828 h -52.966 c -4.875 0 -8.828 3.953 -8.828 8.828 v 8.828 C 397.241 216.737 401.194 220.69 406.069 220.69 z" style="stroke: none; stroke-width: 1; stroke-dasharray: none; stroke-linecap: butt; stroke-linejoin: miter; stroke-miterlimit: 10; fill: #A0DCF0; fill-rule: nonzero; opacity: 1;" transform=" matrix(1 0 0 1 0 0) " stroke-linecap="round" />
  <path d="M 70.621 326.621 v 70.621 c 0 4.875 -3.953 8.828 -8.828 8.828 h 203.034 c 4.875 0 8.828 -3.953 8.828 -8.828 v -70.621 c 0 -4.875 -3.953 -8.828 -8.828 -8.828 H 61.793 C 66.668 317.793 70.621 321.746 70.621 326.621 z" style="stroke: none; stroke-width: 1; stroke-dasharray: none; stroke-linecap: butt; stroke-linejoin: miter; stroke-miterlimit: 10; fill: #DEE3ED; fill-rule: nonzero; opacity: 1;" transform=" matrix(1 0 0 1 0 0) " stroke-linecap="round" />
  <path d="M 326.621 326.621 v 70.621 c 0 4.875 -3.953 8.828 -8.828 8.828 h 141.241 c 4.875 0 8.828 -3.953 8.828 -8.828 v -70.621 c 0 -4.875 -3.953 -8.828 -8.828 -8.828 H 317.793 C 322.668 317.793 326.621 321.746 326.621 326.621 z" style="stroke: none; stroke-width: 1; stroke-dasharray: none; stroke-linecap: butt; stroke-linejoin: miter; stroke-miterlimit: 10; fill: #DEE3ED; fill-rule: nonzero; opacity: 1;" transform=" matrix(1 0 0 1 0 0) " stroke-linecap="round" />
  <path d="M 52.966 406.069 h 8.828 c 4.875 0 8.828 -3.953 8.828 -8.828 v -70.621 c 0 -4.875 -3.953 -8.828 -8.828 -8.828 h -8.828 c -4.875 0 -8.828 3.953 -8.828 8.828 v 70.621 C 44.138 402.116 48.09 406.069 52.966 406.069 z" style="stroke: none; stroke-width: 1; stroke-dasharray: none; stroke-linecap: butt; stroke-linejoin: miter; stroke-miterlimit: 10; fill: #C3B4FA; fill-rule: nonzero; opacity: 1;" transform=" matrix(1 0 0 1 0 0) " stroke-linecap="round" />
  <path d="M 308.966 406.069 h 8.828 c 4.875 0 8.828 -3.953 8.828 -8.828 v -70.621 c 0 -4.875 -3.953 -8.828 -8.828 -8.828 h -8.828 c -4.875 0 -8.828 3.953 -8.828 8.828 v 70.621 C 300.138 402.116 304.09 406.069 308.966 406.069 z" style="stroke: none; stroke-width: 1; stroke-dasharray: none; stroke-linecap: butt; stroke-linejoin: miter; stroke-miterlimit: 10; fill: #91E6BE; fill-rule: nonzero; opacity: 1;" transform=" matrix(1 0 0 1 0 0) " stroke-linecap="round" />
</g>
</svg>